<?xml version="1.0" standalone="no"?>
<!DOCTYPE svg PUBLIC "-//W3C//DTD SVG 20010904//EN"
 "http://www.w3.org/TR/2001/REC-SVG-20010904/DTD/svg10.dtd">
<svg version="1.0" xmlns="http://www.w3.org/2000/svg"
 width="400.000000pt" height="400.000000pt" viewBox="0 0 400.000000 400.000000"
 preserveAspectRatio="xMidYMid meet">
<metadata>
Created by potrace 1.14, written by Peter Selinger 2001-2017
</metadata>
<g transform="translate(0.000000,400.000000) scale(0.100000,-0.100000)"
fill="#000000" stroke="none">
<path d="M413 3963 c-37 -48 -52 -74 -27 -48 25 25 67 85 61 85 -3 0 -18 -17
-34 -37z"/>
<path d="M812 3975 c0 -16 2 -22 5 -12 2 9 2 23 0 30 -3 6 -5 -1 -5 -18z"/>
<path d="M1297 3948 c-58 -89 -118 -197 -159 -287 -22 -47 -46 -99 -54 -116
-8 -16 -31 -81 -52 -144 l-38 -114 -39 41 c-21 23 -47 56 -57 73 -11 17 -22
29 -25 26 -7 -8 31 -63 80 -113 l39 -42 -16 -70 c-22 -96 -19 -101 9 -17 12
39 26 69 31 68 5 -1 18 -4 29 -8 15 -5 14 -2 -7 14 l-26 21 37 108 c21 59 47
127 58 152 12 25 33 71 47 103 31 71 115 221 167 300 24 36 33 57 25 57 -8 0
-30 -24 -49 -52z"/>
<path d="M1730 3905 c-13 -55 -23 -113 -22 -130 5 -222 2 -261 -27 -351 -50
-153 -111 -301 -223 -534 -39 -80 -81 -170 -95 -200 -67 -150 -97 -210 -102
-210 -13 0 1 199 20 274 22 90 24 120 4 61 l-14 -40 5 55 c8 86 31 235 54 349
12 57 19 105 17 108 -6 5 -39 -135 -66 -282 -27 -144 -39 -257 -43 -381 -2
-56 -6 -100 -11 -97 -4 2 -7 -5 -7 -17 0 -12 3 -19 8 -17 4 3 8 -48 10 -113 2
-101 13 -183 46 -345 14 -67 18 -81 30 -95 7 -8 19 -36 26 -62 7 -27 16 -48
21 -48 8 0 -17 94 -56 207 -25 73 -45 231 -45 358 0 47 6 69 25 100 l25 40 -6
-170 c-5 -156 -4 -174 15 -221 25 -65 61 -249 61 -315 0 -27 4 -49 9 -49 12 0
2 124 -18 225 -9 47 -15 85 -12 85 3 0 22 -13 40 -29 l35 -30 4 -150 4 -149
-74 1 c-85 2 -111 -10 -157 -73 -16 -22 -32 -36 -36 -32 -4 4 -6 0 -4 -8 1 -8
-3 -28 -10 -44 -18 -45 -32 -116 -25 -128 4 -6 21 26 39 70 79 194 101 209
284 182 41 -6 76 -8 79 -5 3 3 -2 13 -11 23 -34 37 -57 106 -57 172 0 36 -4
80 -9 97 l-9 33 48 -25 c43 -22 67 -30 156 -52 15 -3 28 -22 43 -61 12 -32 36
-74 52 -95 21 -25 26 -38 17 -41 -7 -2 -49 -12 -93 -21 -44 -10 -100 -27 -125
-37 -87 -38 -90 -39 -83 -20 5 13 1 12 -17 -5 -18 -17 -23 -35 -27 -95 -7
-121 -91 -399 -135 -445 -12 -13 -29 -23 -39 -23 -23 0 -122 75 -191 145 -86
87 -103 135 -74 215 13 35 43 58 108 79 20 7 42 19 48 27 14 16 0 20 -16 4 -6
-6 -25 -15 -44 -20 l-33 -9 8 67 c4 37 11 137 14 222 l6 155 13 -70 c15 -77
69 -265 79 -274 3 -3 3 5 -1 19 -14 49 -66 357 -81 475 -8 66 -18 179 -21 250
-4 72 -10 159 -14 195 -7 59 -7 61 -9 18 0 -27 -11 -66 -26 -95 -33 -65 -56
-159 -58 -243 -1 -38 -5 -66 -8 -62 -9 10 -36 97 -48 157 -12 56 -6 345 8 415
5 25 8 47 6 49 -2 2 -34 -25 -70 -59 -75 -73 -84 -71 -21 3 82 98 196 280 182
294 -2 3 -15 -14 -28 -36 -13 -22 -28 -41 -34 -41 -6 0 -14 -12 -17 -27 -6
-29 -133 -193 -236 -303 -34 -36 -61 -69 -61 -73 0 -11 49 24 75 53 11 12 38
31 59 42 21 11 60 40 87 65 l48 45 -9 -34 c-17 -62 -27 -234 -19 -339 8 -117
25 -172 69 -232 l30 -41 0 46 c0 61 25 200 48 268 l19 55 8 -150 c9 -170 8
-523 -1 -697 -6 -99 -9 -118 -24 -123 -39 -12 -62 -52 -67 -117 -4 -54 -1 -70
21 -111 14 -26 26 -58 27 -70 0 -18 2 -19 7 -5 6 14 18 7 67 -39 77 -72 142
-113 177 -113 49 0 78 41 130 188 43 123 55 175 63 275 6 69 11 90 24 93 9 3
36 15 61 26 35 16 184 58 205 58 2 0 -5 -26 -16 -57 -29 -82 -27 -142 7 -192
14 -22 39 -46 55 -53 16 -7 29 -16 29 -20 0 -5 19 -27 43 -51 59 -58 127 -81
218 -75 64 5 74 9 128 52 33 25 64 46 70 46 6 0 29 18 51 40 35 35 40 45 40
88 0 26 -12 86 -26 135 -15 48 -25 89 -22 92 14 14 301 -124 355 -171 l36 -30
-12 -80 c-10 -64 -10 -100 1 -189 l13 -110 130 0 c72 0 147 3 167 7 37 7 38 6
49 -35 24 -89 49 -254 49 -321 -1 -39 -7 -98 -15 -131 -12 -52 -21 -66 -67
-108 -69 -64 -194 -126 -343 -171 -66 -21 -145 -45 -175 -54 -97 -30 -382 -20
-675 24 -22 3 -81 16 -130 29 -80 20 -130 40 -313 127 -108 51 -208 187 -232
317 -12 64 -12 170 -1 229 5 23 5 45 1 47 -13 8 -30 -90 -30 -174 0 -105 14
-172 51 -245 l30 -61 -38 -30 c-191 -151 -393 -424 -393 -531 0 -25 11 -28 72
-24 19 1 28 -5 33 -19 6 -20 13 -21 185 -21 170 0 179 1 185 20 3 11 11 20 16
20 6 0 5 -8 -1 -20 l-11 -20 1188 2 c1168 3 1189 3 1221 23 36 22 35 16 35
235 0 63 -38 268 -69 379 -13 47 -14 70 -4 155 7 56 11 180 10 276 -1 96 1
259 5 361 7 181 0 419 -13 419 -4 0 -6 -100 -4 -222 2 -123 0 -252 -3 -287
l-7 -64 -22 55 c-13 30 -28 62 -35 69 -7 8 -35 55 -62 104 -27 50 -57 106 -68
125 -27 48 -126 166 -156 186 -44 29 -39 7 12 -48 110 -119 213 -261 218 -298
1 -8 9 -33 19 -54 19 -41 12 -56 -26 -56 -19 0 -58 37 -58 56 0 13 -204 211
-252 245 l-27 20 -34 -74 c-19 -41 -42 -97 -51 -125 l-17 -50 -41 21 c-22 12
-49 35 -61 52 -37 55 -80 94 -108 100 l-28 6 58 77 c89 117 136 195 205 337
65 132 92 202 83 211 -3 3 -10 -12 -17 -33 -7 -21 -38 -85 -69 -143 -48 -91
-56 -101 -59 -77 -2 17 3 36 13 47 9 10 12 20 7 21 -5 2 -1 38 9 82 42 177 69
445 69 690 0 83 -2 148 -5 146 -2 -3 -5 -70 -6 -149 -2 -154 -20 -380 -41
-520 l-13 -85 -6 210 c-8 236 -40 487 -90 705 -31 132 -48 185 -49 148 0 -9 7
-45 14 -80 41 -177 84 -489 88 -638 0 -25 1 -155 2 -289 l1 -245 -105 -51
c-70 -35 -142 -61 -215 -79 -116 -27 -336 -48 -370 -34 -11 4 -121 19 -245 33
-123 14 -263 35 -311 46 -47 11 -97 21 -110 22 -42 4 -202 94 -246 139 -69 71
-76 98 -67 267 4 80 7 166 7 189 -1 32 8 60 31 100 28 51 150 303 204 422 29
63 108 288 117 330 14 67 24 67 25 0 0 -82 28 -364 40 -410 10 -37 9 -27 -9
190 -13 152 -13 720 0 758 6 17 9 37 6 44 -2 7 -14 -32 -27 -87z m44 -1998
c46 -12 49 -15 68 -66 11 -29 18 -54 16 -56 -1 -2 -19 -6 -39 -10 -33 -6 -39
-4 -58 23 -11 16 -30 50 -41 76 -22 52 -21 52 54 33z m97 -44 c6 -16 15 -36
20 -45 5 -10 5 -19 -1 -23 -11 -7 -16 2 -35 54 -16 46 -1 58 16 14z m191 1
c51 -5 57 -8 66 -33 l10 -29 -115 2 -115 2 -14 33 c-8 18 -14 36 -14 40 0 4
28 4 63 -1 34 -4 88 -10 119 -14z m678 22 c0 -5 -139 -108 -195 -145 -66 -43
-88 -47 -142 -26 l-46 18 69 25 c38 14 93 41 122 59 29 18 76 38 105 44 29 6
56 15 62 20 9 9 25 12 25 5z m-304 -96 c-102 -49 -100 -48 -168 -24 -34 12
-18 22 60 39 42 10 86 21 97 25 11 5 40 9 65 8 l45 0 -99 -48z m-948 -43 l21
-37 -27 6 c-36 9 -35 8 -27 44 4 17 8 30 9 28 1 -2 12 -20 24 -41z m1394 -199
c42 -51 56 -76 73 -132 l13 -41 1 43 1 43 52 -39 c71 -52 89 -80 91 -136 2
-41 -2 -51 -25 -71 -35 -30 -105 -44 -249 -47 l-117 -3 -11 100 c-10 83 -9
113 3 177 16 81 37 133 58 141 7 3 27 6 44 6 25 1 38 -7 66 -41z m-852 -1428
c14 -27 5 -56 -21 -63 -37 -10 -65 43 -37 71 18 18 46 14 58 -8z"/>
<path d="M2255 3978 c21 -68 27 -172 21 -398 -6 -286 -37 -551 -85 -725 -16
-60 -28 -111 -26 -113 5 -5 38 72 58 133 36 112 77 417 77 578 0 53 4 97 8 97
5 0 21 -13 37 -30 16 -16 30 -28 33 -26 2 2 -13 20 -34 39 -37 34 -37 35 -40
118 -7 211 -25 349 -46 349 -6 0 -7 -9 -3 -22z"/>
<path d="M3483 3930 c101 -109 222 -328 257 -463 42 -166 59 -420 62 -944 2
-194 6 -344 10 -335 4 9 7 44 8 77 2 76 16 46 19 -40 2 -86 31 -505 36 -535 2
-14 7 -65 10 -115 7 -97 48 -483 65 -605 6 -41 13 -110 17 -152 3 -43 10 -78
15 -78 4 0 6 -12 3 -27 -5 -27 -5 -27 5 -4 7 17 5 65 -9 175 -11 83 -22 187
-26 231 -3 44 -19 213 -34 375 -16 162 -34 367 -41 455 -6 88 -13 178 -15 200
-3 22 -9 87 -15 144 -5 57 -10 162 -10 235 0 169 -17 538 -30 686 -24 248 -57
352 -162 511 -23 36 -61 96 -83 132 -22 36 -45 66 -52 67 -6 0 -26 18 -43 40
-17 22 -36 40 -42 40 -5 0 19 -31 55 -70z"/>
<path d="M3150 3925 c13 -14 26 -25 28 -25 3 0 -5 11 -18 25 -13 14 -26 25
-28 25 -3 0 5 -11 18 -25z"/>
<path d="M803 3895 c0 -27 2 -38 4 -22 2 15 2 37 0 50 -2 12 -4 0 -4 -28z"/>
<path d="M322 3838 c-70 -117 -156 -298 -188 -395 -62 -189 -67 -341 -17 -543
31 -128 74 -218 130 -276 40 -41 46 -44 97 -44 30 0 57 4 60 8 2 4 -22 8 -54
7 -67 0 -85 12 -135 90 -81 129 -134 377 -115 547 12 106 51 247 62 222 5 -12
6 -6 2 15 -4 21 -2 31 4 27 5 -3 13 11 16 32 8 43 89 209 146 300 22 34 36 62
32 62 -4 0 -22 -24 -40 -52z"/>
<path d="M3204 3858 c13 -18 40 -67 58 -108 102 -222 134 -446 126 -895 -5
-291 1 -310 23 -70 15 162 15 163 7 315 l-6 115 19 -90 c11 -49 38 -173 59
-275 39 -191 55 -205 21 -19 -22 116 -86 408 -101 454 -5 17 -19 77 -30 135
-10 58 -28 134 -38 170 -30 107 -130 299 -155 300 -4 0 3 -15 17 -32z"/>
<path d="M792 3765 c-2 -19 1 -35 6 -35 4 0 9 16 10 35 2 19 -1 35 -6 35 -4 0
-9 -16 -10 -35z"/>
<path d="M802 3690 c-2 -47 22 -155 46 -210 12 -25 21 -39 21 -32 1 7 -5 25
-13 40 -13 26 -41 145 -49 207 -4 28 -4 28 -5 -5z"/>
<path d="M1397 3459 c-16 -44 -27 -82 -25 -84 2 -3 18 34 35 80 17 47 28 85
24 85 -3 0 -19 -36 -34 -81z"/>
<path d="M2831 3503 c0 -5 9 -26 20 -48 18 -37 17 -18 -2 33 -8 21 -20 31 -18
15z"/>
<path d="M2390 3484 c0 -5 19 -29 41 -54 80 -86 359 -478 359 -503 0 -3 11
-23 25 -43 14 -20 59 -105 101 -188 42 -83 73 -135 69 -116 -25 117 -199 426
-354 630 -94 124 -241 291 -241 274z"/>
<path d="M153 3418 c-4 -7 -9 -85 -11 -174 -4 -138 -1 -172 16 -243 42 -163
117 -293 193 -332 23 -11 43 -18 46 -16 2 3 -5 8 -16 12 -34 11 -113 107 -147
180 -54 116 -76 214 -80 356 -2 69 0 149 5 177 8 54 7 60 -6 40z"/>
<path d="M1448 3372 c-22 -60 -15 -67 7 -7 10 25 16 47 14 50 -3 2 -12 -17
-21 -43z"/>
<path d="M2881 3344 c6 -21 13 -41 16 -44 9 -9 -9 65 -18 74 -4 5 -3 -8 2 -30z"/>
<path d="M1357 3346 c-4 -10 -7 -25 -6 -34 0 -11 4 -9 10 7 5 13 8 29 6 35 -2
5 -6 2 -10 -8z"/>
<path d="M1381 3169 c-12 -39 -21 -72 -19 -75 2 -2 14 28 27 67 12 39 21 72
19 75 -2 2 -14 -28 -27 -67z"/>
<path d="M3071 3224 c0 -11 3 -14 6 -6 3 7 2 16 -1 19 -3 4 -6 -2 -5 -13z"/>
<path d="M3087 3100 c3 -58 7 -107 9 -109 8 -8 3 135 -6 174 -5 27 -6 5 -3
-65z"/>
<path d="M1021 3093 c-10 -26 -10 -27 4 -9 8 11 15 23 15 28 0 15 -7 8 -19
-19z"/>
<path d="M945 3045 c-4 -25 -5 -48 -2 -51 2 -3 8 16 12 41 3 26 4 49 2 52 -3
3 -9 -16 -12 -42z"/>
<path d="M1342 3041 c-7 -21 -12 -45 -11 -52 0 -8 7 8 15 35 9 26 13 50 11 52
-2 2 -9 -13 -15 -35z"/>
<path d="M2160 2956 c-18 -74 -94 -180 -205 -285 -69 -65 -73 -71 -36 -51 53
30 138 114 177 172 58 91 55 91 48 -1 -4 -47 -10 -97 -14 -113 -5 -15 -6 -28
-4 -28 9 0 35 71 29 80 -3 5 1 45 10 88 9 43 15 105 13 138 l-3 59 -15 -59z"/>
<path d="M1321 2944 c0 -11 3 -14 6 -6 3 7 2 16 -1 19 -3 4 -6 -2 -5 -13z"/>
<path d="M1772 2930 c0 -14 4 -36 8 -50 l8 -25 0 25 c0 14 -4 36 -8 50 l-8 25
0 -25z"/>
<path d="M1306 2894 c-4 -14 -5 -28 -3 -31 3 -2 8 8 11 23 4 14 5 28 3 31 -3
2 -8 -8 -11 -23z"/>
<path d="M3430 2902 c0 -17 44 -251 65 -347 3 -15 -3 -12 -23 13 -17 20 -36
32 -51 32 l-24 0 28 -22 c66 -52 85 -178 40 -267 -24 -49 -141 -179 -150 -169
-3 3 8 72 24 154 30 148 50 311 31 249 -5 -16 -16 -77 -25 -135 -16 -109 -95
-419 -146 -573 -33 -99 -33 -101 -18 -92 9 6 124 -105 226 -218 23 -26 47 -47
53 -47 23 0 -54 92 -155 186 -58 54 -105 104 -105 112 0 8 6 26 14 40 8 15 30
85 50 156 20 71 37 130 39 131 1 1 19 14 40 29 l37 28 0 -71 c0 -123 32 -319
77 -469 28 -95 40 -105 19 -16 -31 133 -37 192 -36 372 0 103 2 203 6 222 4
26 3 31 -5 19 -5 -8 -13 -69 -17 -135 -8 -127 -14 -120 -29 32 l-7 71 56 57
c35 36 60 72 68 98 l12 41 22 -120 c12 -66 27 -162 34 -214 15 -112 31 -173
23 -84 -19 212 -68 514 -123 761 -42 189 -50 216 -50 176z"/>
<path d="M1791 2834 c0 -11 3 -14 6 -6 3 7 2 16 -1 19 -3 4 -6 -2 -5 -13z"/>
<path d="M1663 2753 c-14 -49 -10 -317 5 -333 7 -8 19 -24 27 -35 24 -35 38
-4 43 104 4 87 -9 237 -25 277 -9 25 -42 16 -50 -13z"/>
<path d="M2573 2743 c-15 -23 -18 -49 -18 -158 1 -113 4 -136 23 -177 24 -52
32 -57 53 -32 19 23 25 241 9 313 -19 86 -37 100 -67 54z"/>
<path d="M596 2743 c-6 -14 -5 -15 5 -6 7 7 10 15 7 18 -3 3 -9 -2 -12 -12z"/>
<path d="M515 2675 c-22 -19 -46 -34 -52 -35 -7 0 -13 -8 -13 -17 0 -10 4 -14
8 -8 4 6 14 11 22 13 18 4 99 82 85 82 -6 0 -28 -16 -50 -35z"/>
<path d="M3531 2645 c0 -11 4 -47 9 -80 5 -33 13 -85 16 -115 9 -86 18 -74 10
15 -7 81 -33 216 -35 180z"/>
<path d="M3573 2340 c0 -25 2 -35 4 -22 2 12 2 32 0 45 -2 12 -4 2 -4 -23z"/>
<path d="M1993 2126 c-24 -18 -22 -46 5 -69 16 -14 76 -25 172 -32 32 -2 49
-9 59 -24 15 -23 61 -29 61 -8 0 7 19 17 43 23 40 8 42 11 42 44 0 31 -5 37
-40 54 -56 28 -308 36 -342 12z m322 -27 c53 -25 43 -69 -17 -69 -14 0 -28 -6
-31 -12 -3 -9 -11 -6 -26 10 -19 19 -33 22 -99 23 -91 1 -121 8 -136 32 -20
31 10 38 149 34 85 -2 140 -8 160 -18z"/>
<path d="M3610 1874 c0 -8 5 -12 10 -9 6 3 10 10 10 16 0 5 -4 9 -10 9 -5 0
-10 -7 -10 -16z"/>
<path d="M3736 1243 c9 -76 14 -80 14 -10 0 31 -5 59 -10 62 -7 4 -8 -13 -4
-52z"/>
<path d="M992 1188 c-20 -260 -36 -757 -22 -668 12 74 32 508 28 605 -2 50 -5
78 -6 63z"/>
<path d="M3751 1118 c-1 -27 3 -48 7 -48 4 0 6 17 4 38 -5 58 -10 62 -11 10z"/>
<path d="M1616 1058 c-22 -34 -30 -135 -17 -200 21 -101 72 -112 106 -23 21
55 17 163 -9 213 -20 39 -58 44 -80 10z m42 -82 c3 -12 -1 -17 -10 -14 -7 3
-15 13 -16 22 -3 12 1 17 10 14 7 -3 15 -13 16 -22z"/>
<path d="M3768 915 c9 -188 6 -719 -5 -827 -5 -49 -5 -88 -1 -88 33 0 49 482
27 792 -15 215 -29 295 -21 123z"/>
<path d="M2297 1016 c-43 -43 -40 -253 4 -289 12 -10 29 -15 36 -12 8 3 21 5
29 5 23 0 45 66 45 136 0 77 -6 99 -38 142 -26 34 -53 41 -76 18z m37 -111
c-4 -8 -10 -12 -15 -9 -11 6 -12 48 -2 58 10 10 24 -31 17 -49z"/>
<path d="M1810 680 c-93 -32 -130 -93 -96 -158 24 -46 49 -61 141 -83 112 -26
289 -24 342 4 41 22 66 69 58 107 -7 31 -56 79 -108 106 -89 47 -241 58 -337
24z m284 -29 c72 -28 136 -84 136 -117 0 -28 -29 -60 -68 -75 -37 -14 -205
-13 -299 2 -66 10 -83 17 -110 45 -62 61 -29 131 75 165 51 16 202 5 266 -20z"/>
<path d="M1845 581 c-8 -26 5 -73 19 -68 6 2 12 22 14 45 2 32 0 42 -12 42 -8
0 -17 -9 -21 -19z"/>
<path d="M2057 583 c-4 -3 -7 -24 -7 -45 0 -50 26 -53 36 -4 8 45 -8 71 -29
49z"/>
</g>
</svg>
